# xmcd
#
# Track frame offsets:
#       150
#       17437
#       32144
#       50206
#       64101
#       76371
#       94562
#       115254
#       131284
#       147099
#       160315
#       183500
#       196527
#       211884
#
# Disc length: 3072 seconds
#
# Revision: 0
# Processed by: cddbd v1.5.2PL0 Copyright (c) Steve Scherf et al.
# Submitted via: WhereIsIt 2010.1026
#
DISCID=b50bfe0e
DTITLE=Various Artist - Mr Music Country 2008 08
DYEAR=1900
DGENRE=
TTITLE0=W.C. Edgar - Vegas
TTITLE1=Lealand Martin - High Heels For 18 Wheels
TTITLE2=Kacey Jones - San Francisco Mabel Joy
TTITLE3=Keith Mccoy - Lately A Stranger In My Arms
TTITLE4=Terri Williams - Grandma's Still Rockin' (extendedversion)
TTITLE5=Justin Trevino - I Did It All Of My Own
TTITLE6=Tommy Alverson With Heather Myles - Tequila Rose
TTITLE7=Johnny Lyon - Would You Want The World To End
TTITLE8=Kate Russell - Table 32
TTITLE9=The Right Five - Honky Tonkitis
TTITLE10=Ulf "M"andersson - When Rita Leaves
TTITLE11=Kim Carson - Burned By An Old Flame
TTITLE12=Randy Archer - I Can Hardly Wait
TTITLE13=Butch Martin - The Reverend Mr. Black
EXTD=
EXTT0=
EXTT1=
EXTT2=
EXTT3=
EXTT4=
EXTT5=
EXTT6=
EXTT7=
EXTT8=
EXTT9=
EXTT10=
EXTT11=
EXTT12=
EXTT13=
PLAYORDER=
